<?xml version="1.0" standalone="no"?>
<!DOCTYPE svg PUBLIC "-//W3C//DTD SVG 20010904//EN"
 "http://www.w3.org/TR/2001/REC-SVG-20010904/DTD/svg10.dtd">
<svg version="1.0" xmlns="http://www.w3.org/2000/svg"
 width="500.000000pt" height="500.000000pt" viewBox="0 0 500.000000 500.000000"
 preserveAspectRatio="xMidYMid meet">

<g transform="translate(0.000000,500.000000) scale(0.100000,-0.100000)"
fill="#000000" stroke="none">
<path d="M3677 3417 c-87 -29 -140 -100 -158 -211 -11 -64 1 -155 27 -207 20
-40 79 -87 126 -100 58 -15 164 -7 213 17 l40 19 3 123 3 123 -88 -3 -88 -3
-3 -32 c-3 -33 -3 -33 41 -33 l45 0 4 -61 c3 -57 1 -62 -20 -70 -41 -16 -97
-10 -132 14 -53 35 -68 71 -69 161 -1 87 21 143 66 167 40 21 123 17 167 -9
21 -13 40 -22 41 -20 1 2 5 23 9 48 l6 45 -42 19 c-54 23 -141 29 -191 13z"/>
<path d="M1057 3414 c-4 -4 -7 -121 -7 -261 l0 -253 45 0 45 0 0 182 c0 100 4
178 8 173 5 -6 19 -37 32 -70 13 -33 41 -97 61 -142 l38 -83 40 0 c39 0 40 1
61 58 11 31 38 98 58 147 l37 90 3 -177 2 -178 45 0 45 0 0 255 0 255 -58 0
-58 0 -18 -42 c-10 -24 -26 -62 -37 -85 -10 -24 -19 -47 -19 -53 0 -6 -4 -18
-9 -28 -5 -9 -20 -41 -33 -71 l-23 -53 -13 33 c-8 19 -39 94 -69 167 l-56 132
-43 0 c-23 0 -49 2 -56 5 -8 3 -17 2 -21 -1z"/>
<path d="M1851 3402 c-20 -38 -173 -493 -168 -499 9 -8 78 -6 86 3 5 5 16 33
26 62 l17 52 92 0 92 0 13 -37 c33 -97 28 -93 80 -86 25 3 47 7 49 8 1 1 -18
60 -43 131 -25 71 -53 149 -61 174 -8 25 -19 54 -24 65 -5 11 -19 48 -31 83
l-22 62 -48 0 c-36 0 -51 -5 -58 -18z m83 -187 c15 -47 29 -92 32 -100 5 -12
-6 -15 -60 -15 -48 0 -66 4 -66 13 0 8 11 47 25 88 33 97 34 99 39 99 2 0 16
-38 30 -85z"/>
<path d="M2250 3161 l0 -261 50 0 50 0 0 113 c1 125 -5 122 65 32 17 -21 49
-62 73 -92 l43 -53 61 0 c47 0 58 3 51 13 -6 6 -54 67 -107 134 l-98 123 19
24 c10 13 53 67 96 119 42 53 77 98 77 101 0 3 -21 6 -47 6 l-48 0 -70 -86
c-38 -47 -80 -98 -92 -113 l-23 -26 0 108 c0 98 -2 107 -19 107 -10 0 -33 3
-50 6 l-31 7 0 -262z"/>
<path d="M2750 3158 l0 -265 28 2 c68 5 62 -21 62 260 l0 255 -22 0 c-13 0
-33 3 -45 6 l-23 6 0 -264z"/>
<path d="M2990 3160 l0 -260 45 0 45 0 0 170 c0 107 4 170 10 170 6 0 10 -4
10 -9 0 -8 89 -156 173 -288 26 -41 29 -43 77 -43 l50 0 0 260 0 260 -45 0
-45 0 0 -180 c0 -162 -7 -212 -23 -162 -7 19 -34 65 -93 158 -21 34 -55 88
-75 121 -36 57 -38 59 -83 62 l-46 2 0 -261z"/>
<path d="M3106 2700 c-97 -49 -125 -104 -126 -243 0 -127 24 -184 100 -237 31
-22 45 -25 125 -25 139 0 183 28 155 99 l-9 26 -41 -21 c-32 -17 -50 -20 -87
-14 -63 9 -116 38 -131 70 -17 37 -15 170 3 205 37 72 145 95 218 46 l36 -25
7 44 c3 24 3 48 0 53 -11 19 -99 42 -155 42 -35 -1 -71 -8 -95 -20z"/>
<path d="M242 2453 l3 -258 47 0 48 0 0 108 0 107 100 0 100 0 0 -110 0 -110
50 0 50 0 0 260 0 260 -50 0 -50 0 0 -100 0 -100 -100 0 -100 0 0 100 0 100
-50 0 -50 0 2 -257z"/>
<path d="M770 2449 c0 -234 2 -261 16 -255 9 3 79 6 157 6 l142 0 0 40 1 40
-81 2 c-158 4 -140 -5 -143 66 l-3 61 93 3 93 3 3 37 3 37 -93 3 -93 3 0 65 0
65 103 0 102 0 0 43 0 42 -150 0 -150 0 0 -261z"/>
<path d="M1337 2703 c-5 -7 -36 -92 -57 -153 -102 -296 -117 -345 -109 -351 6
-3 27 -6 46 -5 35 1 37 3 58 61 l23 60 92 0 93 0 21 -60 22 -60 44 3 c24 2 46
4 47 6 4 4 -39 134 -97 296 -23 63 -48 136 -57 163 l-16 47 -53 0 c-29 0 -55
-3 -57 -7z m63 -117 c0 -7 13 -52 28 -100 l29 -86 -70 0 c-51 0 -68 3 -64 13
2 6 17 51 33 100 25 79 44 110 44 73z"/>
<path d="M1700 2456 l0 -256 150 0 150 0 0 40 0 40 -100 0 -100 0 0 113 c-1
61 -2 157 -3 212 l-2 100 -47 3 -48 3 0 -255z"/>
<path d="M2004 2694 c3 -9 6 -27 6 -40 0 -23 3 -24 70 -24 l70 0 0 -220 0
-220 28 0 c15 0 37 3 50 6 22 6 22 7 22 220 l0 214 75 0 75 0 0 40 0 40 -201
0 c-179 0 -200 -2 -195 -16z"/>
<path d="M2470 2450 l0 -260 28 0 c71 0 72 2 72 116 l0 104 100 0 100 0 0
-111 0 -110 48 3 47 3 3 258 3 257 -51 0 -50 0 0 -99 c0 -81 -3 -100 -16 -105
-20 -8 -113 -8 -153 0 l-31 7 0 98 0 99 -50 0 -50 0 0 -260z"/>
<path d="M3596 2676 c-14 -35 -156 -461 -156 -470 0 -3 16 -8 36 -12 44 -8 54
1 75 69 l16 52 92 0 93 0 19 -54 c10 -30 22 -58 26 -61 5 -4 29 -5 54 -2 l46
4 -43 121 c-23 67 -61 174 -84 237 -23 63 -44 123 -47 133 -4 13 -17 17 -59
17 -52 0 -54 -1 -68 -34z m124 -263 c0 -9 -19 -13 -64 -13 l-65 0 9 28 c22 72
50 154 56 164 7 11 63 -150 64 -179z"/>
<path d="M3980 2451 l0 -258 48 1 47 1 3 93 3 92 33 0 c37 0 43 -6 76 -65 70
-126 58 -115 117 -115 29 0 53 3 53 6 0 4 -23 46 -51 93 -29 47 -53 89 -56 93
-2 4 10 15 26 24 48 28 64 70 59 147 -3 59 -8 71 -34 98 -39 39 -83 48 -216
49 l-108 0 0 -259z m238 159 c31 -29 36 -62 17 -99 -19 -38 -49 -51 -114 -51
l-48 0 -2 85 -2 85 64 0 c50 0 68 -4 85 -20z"/>
<path d="M4450 2455 l0 -255 160 0 160 0 0 40 0 40 -110 0 c-106 0 -110 1
-115 23 -4 13 -4 36 -1 53 2 16 5 34 5 41 1 8 30 13 94 15 l92 3 3 38 3 37
-95 0 -96 0 0 70 0 70 105 0 105 0 0 40 0 40 -155 0 -155 0 0 -255z"/>
<path d="M1677 2013 c-4 -3 -7 -120 -7 -260 l0 -253 166 0 165 0 -3 37 -3 37
-110 1 -110 0 -3 68 -3 67 96 0 96 0 -3 43 -3 42 -55 0 c-30 1 -72 2 -92 3
l-38 2 0 65 0 65 105 0 105 0 0 45 0 45 -148 0 c-82 0 -152 -3 -155 -7z"/>
<path d="M2293 2012 c-29 -2 -53 -4 -53 -5 0 -1 -12 -34 -26 -72 -28 -77 -144
-423 -144 -430 0 -3 22 -5 48 -5 l48 0 18 60 18 60 92 0 93 0 18 -60 18 -60
55 0 c48 0 53 2 47 18 -4 9 -11 28 -15 42 -11 34 -62 177 -100 280 -17 47 -38
105 -47 130 -8 25 -16 45 -17 45 0 0 -25 -1 -53 -3z m57 -294 c0 -15 -9 -18
-60 -18 -33 0 -60 4 -60 9 0 12 50 173 58 185 6 11 62 -148 62 -176z"/>
<path d="M2681 2002 c-48 -24 -73 -62 -79 -120 -8 -92 34 -138 171 -182 88
-28 66 -130 -28 -130 -14 0 -48 9 -77 20 -28 11 -54 17 -57 15 -2 -3 -5 -24
-5 -46 -1 -41 0 -42 44 -55 65 -20 147 -17 198 6 34 15 47 29 64 66 45 102 1
185 -118 224 -79 27 -99 48 -95 101 1 19 42 39 81 39 15 0 49 -9 74 -20 l46
-19 2 29 c1 17 2 37 2 47 2 39 -158 57 -223 25z"/>
<path d="M2980 2014 c0 -8 141 -277 151 -289 5 -5 9 -58 9 -117 l0 -108 50 0
50 0 0 101 0 102 80 153 81 153 -36 7 c-19 3 -42 4 -50 0 -9 -3 -39 -53 -66
-111 -28 -58 -54 -103 -57 -101 -4 2 -29 49 -57 105 -33 66 -56 102 -70 105
-27 7 -85 7 -85 0z"/>
</g>
</svg>
